<svg width="96" height="96" xmlns="http://www.w3.org/2000/svg" xmlns:xlink="http://www.w3.org/1999/xlink" xml:space="preserve" overflow="hidden"><defs><clipPath id="clip0"><rect x="485" y="227" width="96" height="96"/></clipPath></defs><g clip-path="url(#clip0)" transform="translate(-485 -227)"><path d="M511.29 277C510.671 276.999 510.088 276.711 509.71 276.22 509.033 275.347 509.192 274.091 510.065 273.414 510.067 273.413 510.068 273.411 510.07 273.41 513.911 270.415 518.437 268.422 523.24 267.61 524.345 267.436 525.381 268.19 525.555 269.295 525.729 270.4 524.975 271.436 523.87 271.61 519.727 272.309 515.823 274.027 512.51 276.61 512.157 276.87 511.728 277.007 511.29 277Z"/><path d="M500.8 295.65 500.7 295.65C499.599 295.596 498.749 294.661 498.8 293.56 499.004 289.852 500.029 286.235 501.8 282.97 502.325 281.995 503.54 281.63 504.515 282.155 505.49 282.68 505.855 283.895 505.33 284.87 503.821 287.602 502.94 290.635 502.75 293.75 502.698 294.796 501.847 295.625 500.8 295.65Z"/><path d="M490.21 270.1C489.581 270.1 488.988 269.804 488.61 269.3 487.945 268.419 488.12 267.166 489 266.5 494.1 262.68 501.93 260.5 510.49 260.5 513.99 260.486 517.48 260.878 520.89 261.67 521.986 261.81 522.76 262.812 522.62 263.908 522.479 265.004 521.477 265.778 520.382 265.638 520.252 265.621 520.124 265.592 520 265.55 516.888 264.835 513.703 264.479 510.51 264.49 502.91 264.49 495.78 266.44 491.42 269.71 491.07 269.968 490.645 270.105 490.21 270.1Z"/><path d="M528.7 263.16C527.97 263.151 527.294 262.775 526.9 262.16 524.629 258.816 521.802 255.887 518.54 253.5 513.13 249.5 507.02 247.05 502.21 247.04 501.023 247.04 500.06 246.077 500.06 244.89 500.06 243.703 501.023 242.74 502.21 242.74L502.21 242.74C507.99 242.74 514.88 245.41 521.1 250.05 524.769 252.738 527.946 256.04 530.49 259.81 531.136 260.813 530.847 262.15 529.844 262.796 529.5 263.018 529.1 263.137 528.69 263.14Z"/><path d="M566.23 286.69C565.399 286.69 564.655 286.177 564.36 285.4 562.58 280.7 558.12 276.24 552.36 273.47 550.141 272.379 547.787 271.586 545.36 271.11 544.275 270.903 543.563 269.855 543.77 268.77 543.977 267.685 545.025 266.973 546.11 267.18 548.883 267.724 551.572 268.628 554.11 269.87 560.86 273.13 565.94 278.27 568.1 284 568.492 285.033 567.973 286.188 566.94 286.58 566.94 286.58 566.94 286.58 566.94 286.58 566.712 286.661 566.471 286.698 566.23 286.69Z"/><path d="M547.71 289 547.71 289C546.605 289 545.71 288.105 545.71 287 545.575 283.86 544.282 280.882 542.08 278.64 541.176 277.626 540.14 276.738 539 276 538.048 275.44 537.731 274.214 538.291 273.262 538.851 272.31 540.077 271.992 541.029 272.553 541.07 272.577 541.111 272.603 541.15 272.63 542.573 273.548 543.867 274.651 545 275.91 547.912 278.898 549.585 282.879 549.68 287.05 549.653 288.123 548.784 288.984 547.71 289Z"/><path d="M539.85 265.86C538.745 265.865 537.846 264.973 537.841 263.869 537.838 263.123 538.25 262.437 538.91 262.09 541.498 260.738 544.251 259.729 547.1 259.09 548.18 258.841 549.256 259.515 549.505 260.595 549.753 261.675 549.08 262.751 548 263 545.495 263.556 543.071 264.434 540.79 265.61 540.502 265.769 540.179 265.855 539.85 265.86Z"/><path d="M575.3 266.56C574.897 266.56 574.503 266.438 574.17 266.21 571.07 264.08 565.83 262.56 560.17 262.14 559.065 262.057 558.237 261.095 558.32 259.99 558.403 258.885 559.365 258.057 560.47 258.14 566.92 258.62 572.75 260.35 576.47 262.9 577.381 263.524 577.614 264.769 576.99 265.68 576.617 266.224 576 266.55 575.34 266.55Z"/><path d="M536.15 260.66C535.045 260.66 534.15 259.764 534.15 258.66 534.15 258.366 534.215 258.076 534.34 257.81 535.837 254.634 537.78 251.687 540.11 249.06 545.04 243.42 551.11 239.6 556.72 238.57 557.815 238.423 558.821 239.192 558.968 240.286 559.105 241.308 558.443 242.266 557.44 242.5 552.76 243.36 547.44 246.8 543.12 251.7 541.057 254.048 539.333 256.673 538 259.5 537.667 260.219 536.942 260.674 536.15 260.66Z"/><path d="M525.7 311.28C524.696 311.29 523.841 310.554 523.7 309.56 523.069 304.297 523.092 298.977 523.77 293.72 524.358 288.053 525.735 282.496 527.86 277.21 528.302 276.197 529.482 275.733 530.495 276.175 531.508 276.617 531.972 277.797 531.53 278.81 529.559 283.735 528.287 288.912 527.75 294.19 527.108 299.104 527.085 304.08 527.68 309 527.835 310.087 527.085 311.095 526 311.26 525.901 311.278 525.8 311.285 525.7 311.28Z"/><path d="M517.79 287.39C517.651 287.41 517.509 287.41 517.37 287.39 516.289 287.162 515.598 286.101 515.826 285.021 515.827 285.014 515.828 285.007 515.83 285 516.484 282.28 517.678 279.72 519.34 277.47 519.955 276.631 520.623 275.833 521.34 275.08 522.097 274.274 523.364 274.233 524.17 274.99 524.976 275.747 525.017 277.014 524.26 277.82 523.674 278.453 523.126 279.121 522.62 279.82 521.285 281.612 520.32 283.652 519.78 285.82 519.575 286.75 518.743 287.408 517.79 287.39Z"/><path d="M529.75 248.55C528.772 248.566 527.926 247.872 527.75 246.91 527.368 244.524 526.669 242.2 525.67 240 525.162 239.017 525.547 237.808 526.53 237.3 527.513 236.792 528.722 237.177 529.23 238.16 530.421 240.701 531.259 243.392 531.72 246.16 531.921 247.245 531.205 248.288 530.12 248.49 530 248.525 529.875 248.545 529.75 248.55Z"/><path d="M541.88 303C540.866 303.008 540.007 302.256 539.88 301.25 539.109 294.576 537.621 288.005 535.44 281.65 535.073 280.606 535.621 279.462 536.665 279.095 537.709 278.728 538.853 279.276 539.22 280.32 541.49 286.948 543.042 293.801 543.85 300.76 543.992 301.855 543.218 302.858 542.123 303 542.122 303 542.121 303 542.12 303Z"/><path d="M496 276C496 277.105 495.105 278 494 278 492.895 278 492 277.105 492 276 492 274.895 492.895 274 494 274 495.105 274 496 274.895 496 276Z"/><path d="M517 293C517 294.105 516.105 295 515 295 513.895 295 513 294.105 513 293 513 291.895 513.895 291 515 291 516.105 291 517 291.895 517 293Z"/><path d="M558 288C558 289.105 557.105 290 556 290 554.895 290 554 289.105 554 288 554 286.895 554.895 286 556 286 557.105 286 558 286.895 558 288Z"/><path d="M545 311C545 312.105 544.105 313 543 313 541.895 313 541 312.105 541 311 541 309.895 541.895 309 543 309 544.105 309 545 309.895 545 311Z"/><path d="M541 242C541 243.105 540.105 244 539 244 537.895 244 537 243.105 537 242 537 240.895 537.895 240 539 240 540.105 240 541 240.895 541 242Z"/><path d="M518 239C518 240.105 517.105 241 516 241 514.895 241 514 240.105 514 239 514 237.895 514.895 237 516 237 517.105 237 518 237.895 518 239Z"/><path d="M556 260C556 261.105 555.105 262 554 262 552.895 262 552 261.105 552 260 552 258.895 552.895 258 554 258 555.105 258 556 258.895 556 260Z"/><path d="M509 279C509 280.105 508.105 281 507 281 505.895 281 505 280.105 505 279 505 277.895 505.895 277 507 277 508.105 277 509 277.895 509 279Z"/><path d="M533 252.96C533 254.065 532.105 254.96 531 254.96 529.895 254.96 529 254.065 529 252.96 529 251.855 529.895 250.96 531 250.96 532.105 250.96 533 251.855 533 252.96Z"/><path d="M504.76 305.44C504.965 305.249 505.046 304.96 504.97 304.69 504.868 304.426 504.622 304.246 504.34 304.23L502.05 304.23C501.763 304.227 501.51 304.042 501.42 303.77L500.67 301.51C500.568 301.222 500.305 301.022 500 301 499.71 301.02 499.453 301.196 499.33 301.46L498.58 303.71C498.508 303.995 498.243 304.189 497.95 304.17L495.66 304.17C495.37 304.163 495.112 304.352 495.03 304.63 494.947 304.9 495.029 305.193 495.24 305.38L496.03 306.09 497 307C497.089 307.099 497.157 307.215 497.2 307.34 497.249 307.458 497.249 307.592 497.2 307.71L496.49 310.09C496.396 310.37 496.503 310.678 496.75 310.84 496.986 311.009 497.304 311.009 497.54 310.84L499.54 309.42C499.783 309.261 500.097 309.261 500.34 309.42L502.34 310.84C502.576 311.009 502.894 311.009 503.13 310.84 503.37 310.673 503.472 310.368 503.38 310.09L502.67 307.71C502.588 307.453 502.671 307.171 502.88 307L504.72 305.42Z"/><path d="M496.76 251.44C496.965 251.249 497.046 250.96 496.97 250.69 496.868 250.426 496.622 250.246 496.34 250.23L494.05 250.23C493.763 250.227 493.51 250.042 493.42 249.77L492.67 247.51C492.568 247.222 492.305 247.022 492 247 491.71 247.02 491.453 247.196 491.33 247.46L490.58 249.71C490.508 249.995 490.243 250.189 489.95 250.17L487.66 250.17C487.37 250.163 487.111 250.352 487.03 250.63 486.947 250.9 487.029 251.193 487.24 251.38L488 252.1 489 253C489.089 253.099 489.157 253.215 489.2 253.34 489.249 253.458 489.249 253.592 489.2 253.71L488.49 256.09C488.396 256.37 488.503 256.678 488.75 256.84 488.986 257.009 489.304 257.009 489.54 256.84L491.54 255.42C491.783 255.261 492.097 255.261 492.34 255.42L494.34 256.84C494.576 257.009 494.894 257.009 495.13 256.84 495.37 256.673 495.472 256.368 495.38 256.09L494.67 253.71C494.597 253.444 494.697 253.161 494.92 253L496.76 251.42Z"/><path d="M565.76 297.34C565.964 297.149 566.046 296.86 565.97 296.59 565.868 296.326 565.622 296.146 565.34 296.13L563.05 296.13C562.763 296.127 562.51 295.942 562.42 295.67L561.67 293.41C561.565 293.126 561.302 292.93 561 292.91 560.71 292.93 560.453 293.106 560.33 293.37L559.58 295.63C559.501 295.909 559.239 296.096 558.95 296.08L556.66 296.08C556.37 296.073 556.112 296.262 556.03 296.54 555.947 296.81 556.029 297.103 556.24 297.29L557 298 558 298.92C558.089 299.019 558.157 299.134 558.2 299.26 558.249 299.378 558.249 299.512 558.2 299.63L557.53 302C557.436 302.28 557.543 302.588 557.79 302.75 558.026 302.919 558.344 302.919 558.58 302.75L560.58 301.33C560.823 301.171 561.137 301.171 561.38 301.33L563.38 302.75C563.616 302.919 563.934 302.919 564.17 302.75 564.41 302.583 564.512 302.278 564.42 302L563.71 299.62C563.628 299.363 563.711 299.081 563.92 298.91L565.76 297.33Z"/><path d="M571.76 248.44C571.964 248.249 572.046 247.96 571.97 247.69 571.868 247.426 571.622 247.246 571.34 247.23L569.05 247.23C568.763 247.227 568.51 247.042 568.42 246.77L567.67 244.51C567.568 244.222 567.305 244.022 567 244 566.71 244.02 566.453 244.196 566.33 244.46L565.58 246.72C565.501 246.999 565.239 247.186 564.95 247.17L562.66 247.17C562.37 247.163 562.112 247.352 562.03 247.63 561.947 247.9 562.029 248.193 562.24 248.38L563.03 249.09 564 250C564.089 250.099 564.157 250.215 564.2 250.34 564.249 250.458 564.249 250.592 564.2 250.71L563.49 253.09C563.396 253.37 563.503 253.678 563.75 253.84 563.986 254.009 564.304 254.009 564.54 253.84L566.54 252.42C566.783 252.261 567.097 252.261 567.34 252.42L569.34 253.84C569.576 254.009 569.894 254.009 570.13 253.84 570.37 253.673 570.472 253.368 570.38 253.09L569.67 250.71C569.588 250.453 569.671 250.171 569.88 250L571.72 248.42Z"/><path d="M579 279C579 280.105 578.105 281 577 281 575.895 281 575 280.105 575 279 575 277.895 575.895 277 577 277 578.105 277 579 277.895 579 279Z"/></g></svg>