<svg width="96" height="96" xmlns="http://www.w3.org/2000/svg" xmlns:xlink="http://www.w3.org/1999/xlink" xml:space="preserve" overflow="hidden"><defs><clipPath id="clip0"><rect x="308" y="242" width="96" height="96"/></clipPath></defs><g clip-path="url(#clip0)" transform="translate(-308 -242)"><path d="M398.404 290.807 393.104 286.806C392.409 286.288 391.914 285.546 391.704 284.705L389.704 277.803C388.684 274.392 385.564 272.042 382.004 272.001L371.997 272.001 372 266 312 266 312 308.012 319.999 308.012C319.999 307.34 320.066 306.67 320.2 306.012L314 306.012 314 268 369.999 268 370 306.012 339.798 306.012C339.932 306.67 340 307.34 340 308.012L373 308.012C373 307.34 373.067 306.67 373.202 306.012L372 306.012 372 274.002 376 274.002 376 287.946 391.38 287.946C391.548 288.115 391.728 288.272 391.918 288.416L397.174 292.385C397.691 292.765 397.998 293.367 398.004 294.008L398.004 304.011C398.003 305.115 397.108 306.01 396.004 306.012L392.799 306.012C392.933 306.67 393 307.34 393 308.012L396.004 308.012C398.211 308.005 399.998 306.217 400.004 304.011L400.004 294.008C400 292.75 399.408 291.565 398.404 290.807ZM378 285.946 378 274.001 382.003 274.001C384.671 274.049 387.004 275.808 387.783 278.36L389.774 285.23C389.842 285.474 389.926 285.713 390.026 285.946Z"/><path d="M332.44 277.347 337.404 282.311C337.55 282.453 337.784 282.45 337.927 282.304 338.066 282.161 338.066 281.932 337.927 281.789L332.96 276.822 333.66 276.122 338.627 281.089C338.769 281.235 339.003 281.238 339.15 281.095 339.296 280.953 339.299 280.719 339.156 280.573 339.154 280.571 339.151 280.568 339.149 280.566L334.183 275.6 334.883 274.9 339.85 279.867C339.993 280.013 340.227 280.016 340.373 279.874 340.519 279.732 340.522 279.497 340.38 279.351 340.377 279.349 340.375 279.346 340.372 279.344L335.404 274.383 335.838 273.947C337.632 275.125 339.317 276.46 340.873 277.937 341.925 278.802 342.486 280.128 342.373 281.485 342.373 281.485 342.356 281.576 342.34 281.702L340.304 283.74 339.685 284.317C339.585 284.331 339.515 284.344 339.515 284.344 338.158 284.456 336.832 283.896 335.967 282.844 334.522 281.258 333.197 279.565 332.004 277.781Z"/><path d="M342.709 286.391 335.291 294.524C334.707 295.098 333.768 295.09 333.194 294.505 332.626 293.927 332.627 293 333.196 292.424L341.329 284.834 350.669 275.494C351.05 275.107 351.671 275.102 352.058 275.482L352.069 275.494C352.069 275.494 353.237 276.747 350.035 280.347L344.352 286.728C344.056 287.047 343.078 286.562 342.709 286.389Z"/><path d="M352.554 294.524C351.972 295.092 351.042 295.092 350.459 294.524L344.559 288.264C344.911 288.177 345.229 287.991 345.476 287.726L346.432 286.652 352.554 292.427C353.123 293.009 353.123 293.939 352.554 294.522Z"/><path d="M330 316.014C325.581 316.015 321.997 312.433 321.996 308.014 321.995 303.594 325.577 300.011 329.996 300.01 334.415 300.009 337.999 303.59 338 308.01 338 308.01 338 308.011 338 308.012 337.996 312.428 334.417 316.008 330 316.014ZM330 302.01C326.685 302.009 323.997 304.695 323.996 308.01 323.995 311.325 326.681 314.013 329.996 314.014 333.311 314.015 335.999 311.329 336 308.014 336 308.013 336 308.013 336 308.012 335.997 304.699 333.313 302.014 330 302.01Z"/><path d="M383 316.014C378.581 316.014 374.997 312.433 374.996 308.013 374.996 303.594 378.578 300.01 382.997 300.01 387.416 300.009 391 303.591 391 308.01 391 308.011 391 308.011 391 308.012 390.996 312.429 387.417 316.008 383 316.014ZM383 302.01C379.685 302.009 376.997 304.696 376.996 308.01 376.996 311.325 379.682 314.013 382.997 314.014 386.312 314.015 389 311.328 389 308.013 389 308.013 389 308.012 389 308.012 388.997 304.699 386.313 302.014 383 302.01Z"/><path d="M398.404 290.807 393.104 286.806C392.409 286.288 391.914 285.546 391.704 284.705L389.704 277.803C388.684 274.392 385.564 272.042 382.004 272.001L371.997 272.001 372 266 312 266 312 308.012 319.999 308.012C319.999 307.34 320.066 306.67 320.2 306.012L314 306.012 314 268 369.999 268 370 306.012 339.798 306.012C339.932 306.67 340 307.34 340 308.012L373 308.012C373 307.34 373.067 306.67 373.202 306.012L372 306.012 372 274.002 376 274.002 376 287.946 391.38 287.946C391.548 288.115 391.728 288.272 391.918 288.416L397.174 292.385C397.691 292.765 397.998 293.367 398.004 294.008L398.004 304.011C398.003 305.115 397.108 306.01 396.004 306.012L392.799 306.012C392.933 306.67 393 307.34 393 308.012L396.004 308.012C398.211 308.005 399.998 306.217 400.004 304.011L400.004 294.008C400 292.75 399.408 291.565 398.404 290.807ZM378 285.946 378 274.001 382.003 274.001C384.671 274.049 387.004 275.808 387.783 278.36L389.774 285.23C389.842 285.474 389.926 285.713 390.026 285.946Z"/><path d="M332.44 277.347 337.404 282.311C337.55 282.453 337.784 282.45 337.927 282.304 338.066 282.161 338.066 281.932 337.927 281.789L332.96 276.822 333.66 276.122 338.627 281.089C338.769 281.235 339.003 281.238 339.15 281.095 339.296 280.953 339.299 280.719 339.156 280.573 339.154 280.571 339.151 280.568 339.149 280.566L334.183 275.6 334.883 274.9 339.85 279.867C339.993 280.013 340.227 280.016 340.373 279.874 340.519 279.732 340.522 279.497 340.38 279.351 340.377 279.349 340.375 279.346 340.372 279.344L335.404 274.383 335.838 273.947C337.632 275.125 339.317 276.46 340.873 277.937 341.925 278.802 342.486 280.128 342.373 281.485 342.373 281.485 342.356 281.576 342.34 281.702L340.304 283.74 339.685 284.317C339.585 284.331 339.515 284.344 339.515 284.344 338.158 284.456 336.832 283.896 335.967 282.844 334.522 281.258 333.197 279.565 332.004 277.781Z"/><path d="M335.291 294.524C334.707 295.098 333.768 295.09 333.194 294.505 332.626 293.927 332.627 293 333.196 292.424L341.329 284.834 350.669 275.494C351.05 275.107 351.671 275.102 352.058 275.482L352.069 275.494C352.069 275.494 353.237 276.747 350.035 280.347L344.352 286.728C344.056 287.047 343.078 286.562 342.709 286.389Z"/><path d="M352.554 294.524C351.972 295.092 351.042 295.092 350.459 294.524L344.559 288.264C344.911 288.177 345.229 287.991 345.476 287.726L346.432 286.652 352.554 292.427C353.123 293.009 353.123 293.939 352.554 294.522Z"/><path d="M330 316.014C325.581 316.015 321.997 312.433 321.996 308.014 321.995 303.594 325.577 300.011 329.996 300.01 334.415 300.009 337.999 303.59 338 308.01 338 308.01 338 308.011 338 308.012 337.996 312.428 334.417 316.008 330 316.014ZM330 302.01C326.685 302.009 323.997 304.695 323.996 308.01 323.995 311.325 326.681 314.013 329.996 314.014 333.311 314.015 335.999 311.329 336 308.014 336 308.013 336 308.013 336 308.012 335.997 304.699 333.313 302.014 330 302.01Z"/><path d="M383 316.014C378.581 316.014 374.997 312.433 374.996 308.013 374.996 303.594 378.578 300.01 382.997 300.01 387.416 300.009 391 303.591 391 308.01 391 308.011 391 308.011 391 308.012 390.996 312.429 387.417 316.008 383 316.014ZM383 302.01C379.685 302.009 376.997 304.696 376.996 308.01 376.996 311.325 379.682 314.013 382.997 314.014 386.312 314.015 389 311.328 389 308.013 389 308.013 389 308.012 389 308.012 388.997 304.699 386.313 302.014 383 302.01Z"/></g></svg>