<svg width="127" height="127" xmlns="http://www.w3.org/2000/svg" xmlns:xlink="http://www.w3.org/1999/xlink" xml:space="preserve" overflow="hidden"><defs><clipPath id="clip0"><rect x="975" y="249" width="127" height="127"/></clipPath></defs><g clip-path="url(#clip0)" transform="translate(-975 -249)"><path d="M1038.5 364.094C1064.8 364.099 1086.13 342.78 1086.13 316.477 1086.14 300.889 1078.51 286.286 1065.72 277.381L1064.2 279.551C1084.59 293.746 1089.61 321.779 1075.41 342.166 1061.22 362.552 1033.18 367.572 1012.8 353.377 992.412 339.182 987.393 311.149 1001.59 290.763 1004.63 286.391 1008.43 282.595 1012.8 279.551L1011.28 277.381C989.696 292.407 984.377 322.089 999.403 343.676 1008.31 356.471 1022.91 364.097 1038.5 364.094Z"/><path d="M1037.18 258.26 1039.82 258.26 1039.82 316.469 1037.18 316.469Z"/></g></svg>