<svg width="160" height="159" xmlns="http://www.w3.org/2000/svg" xmlns:xlink="http://www.w3.org/1999/xlink" xml:space="preserve" overflow="hidden"><defs><clipPath id="clip0"><rect x="749" y="210" width="160" height="159"/></clipPath></defs><g clip-path="url(#clip0)" transform="translate(-749 -210)"><path d="M141.609 125.212 120.906 104.509C118.091 101.694 114.281 100.7 110.638 101.363L103.35 94.075C109.809 85.7937 113.619 75.1938 113.619 63.9312 113.619 36.6031 91.2594 14.2438 63.9312 14.2438 36.6031 14.2438 14.2438 36.6031 14.2438 63.9312 14.2438 91.2594 36.6031 113.619 63.9312 113.619 75.1938 113.619 85.6281 109.809 94.075 103.35L101.363 110.638C100.7 114.281 101.694 118.091 104.509 120.906L125.212 141.609C127.531 143.928 130.513 145.087 133.494 145.087 136.475 145.087 139.456 143.928 141.775 141.609 146.081 136.972 146.081 129.684 141.609 125.212ZM63.7656 103.516C41.9031 103.516 24.0156 85.6281 24.0156 63.7656 24.0156 41.9031 41.9031 24.0156 63.7656 24.0156 85.6281 24.0156 103.516 41.9031 103.516 63.7656 103.516 85.6281 85.6281 103.516 63.7656 103.516Z" transform="matrix(1.00629 0 0 1 749 210)"/></g></svg>